<mxfile host="app.diagrams.net" modified="2020-03-19T12:42:47.769Z" agent="Mozilla/5.0 (Macintosh; Intel Mac OS X 10_15_3) AppleWebKit/537.36 (KHTML, like Gecko) Chrome/80.0.3987.132 Safari/537.36" etag="roh6AQHAnlmrV23r9Esw" version="12.8.8" type="github">
  <diagram id="7pb9xN7VV79GR3MG1eXe" name="Page-1">
    <mxGraphModel dx="1900" dy="1043" grid="0" gridSize="10" guides="1" tooltips="1" connect="1" arrows="1" fold="1" page="1" pageScale="1" pageWidth="1169" pageHeight="827" math="0" shadow="0">
      <root>
        <mxCell id="0" />
        <mxCell id="1" parent="0" />
        <mxCell id="ZyxuIsqHJoSmLZE5cF-4-15" value="&lt;div&gt;User (&lt;b&gt;&lt;u&gt;id&lt;/u&gt;&lt;/b&gt;, name, age, rank, picture)&lt;/div&gt;&lt;font&gt;&lt;div&gt;&lt;span style=&quot;font-size: 12px&quot;&gt;Match (&lt;b&gt;&lt;u&gt;id&lt;/u&gt;&lt;/b&gt;, &lt;i&gt;&lt;b&gt;id_user1&lt;/b&gt;&lt;/i&gt;, &lt;i&gt;&lt;b&gt;id_user1&lt;/b&gt;&lt;/i&gt;, date, location)&lt;/span&gt;&lt;/div&gt;&lt;div&gt;MatchStat (&lt;b&gt;&lt;u&gt;&lt;i&gt;id_match&lt;/i&gt;, &lt;i&gt;id_user&lt;/i&gt;&lt;/u&gt;&lt;/b&gt;, nbAces, nbDoubleFault, percertFirstService,&amp;nbsp;percertSecondService, nbBreakBalls, nbWinPoints, nbWinGames, maxGameSeries)&lt;/div&gt;&lt;/font&gt;" style="text;html=1;align=left;verticalAlign=middle;resizable=0;points=[];autosize=1;" vertex="1" parent="1">
          <mxGeometry x="30" y="41" width="867" height="44" as="geometry" />
        </mxCell>
        <mxCell id="ZyxuIsqHJoSmLZE5cF-4-21" value="MatchStat" style="swimlane;fontStyle=0;childLayout=stackLayout;horizontal=1;startSize=26;fillColor=#e0e0e0;horizontalStack=0;resizeParent=1;resizeParentMax=0;resizeLast=0;collapsible=1;marginBottom=0;swimlaneFillColor=#ffffff;align=center;fontSize=14;" vertex="1" parent="1">
          <mxGeometry x="483" y="148" width="258" height="272" as="geometry" />
        </mxCell>
        <mxCell id="ZyxuIsqHJoSmLZE5cF-4-33" value="id_match&#xa;id_user" style="shape=partialRectangle;top=0;left=0;right=0;bottom=1;align=left;verticalAlign=middle;fillColor=none;spacingLeft=60;spacingRight=4;overflow=hidden;rotatable=0;points=[[0,0.5],[1,0.5]];portConstraint=eastwest;dropTarget=0;fontStyle=5;fontSize=12;" vertex="1" parent="ZyxuIsqHJoSmLZE5cF-4-21">
          <mxGeometry y="26" width="258" height="38" as="geometry" />
        </mxCell>
        <mxCell id="ZyxuIsqHJoSmLZE5cF-4-34" value="PK,FK1" style="shape=partialRectangle;fontStyle=1;top=0;left=0;bottom=0;fillColor=none;align=left;verticalAlign=middle;spacingLeft=4;spacingRight=4;overflow=hidden;rotatable=0;points=[];portConstraint=eastwest;part=1;fontSize=12;" vertex="1" connectable="0" parent="ZyxuIsqHJoSmLZE5cF-4-33">
          <mxGeometry width="56" height="38" as="geometry" />
        </mxCell>
        <mxCell id="ZyxuIsqHJoSmLZE5cF-4-26" value="nbAces" style="shape=partialRectangle;top=0;left=0;right=0;bottom=0;align=left;verticalAlign=top;fillColor=none;spacingLeft=34;spacingRight=4;overflow=hidden;rotatable=0;points=[[0,0.5],[1,0.5]];portConstraint=eastwest;dropTarget=0;fontSize=12;" vertex="1" parent="ZyxuIsqHJoSmLZE5cF-4-21">
          <mxGeometry y="64" width="258" height="26" as="geometry" />
        </mxCell>
        <mxCell id="ZyxuIsqHJoSmLZE5cF-4-27" value="" style="shape=partialRectangle;top=0;left=0;bottom=0;fillColor=none;align=left;verticalAlign=top;spacingLeft=4;spacingRight=4;overflow=hidden;rotatable=0;points=[];portConstraint=eastwest;part=1;fontSize=12;" vertex="1" connectable="0" parent="ZyxuIsqHJoSmLZE5cF-4-26">
          <mxGeometry width="30" height="26" as="geometry" />
        </mxCell>
        <mxCell id="ZyxuIsqHJoSmLZE5cF-4-28" value="nbDoubleFault" style="shape=partialRectangle;top=0;left=0;right=0;bottom=0;align=left;verticalAlign=top;fillColor=none;spacingLeft=34;spacingRight=4;overflow=hidden;rotatable=0;points=[[0,0.5],[1,0.5]];portConstraint=eastwest;dropTarget=0;fontSize=12;" vertex="1" parent="ZyxuIsqHJoSmLZE5cF-4-21">
          <mxGeometry y="90" width="258" height="26" as="geometry" />
        </mxCell>
        <mxCell id="ZyxuIsqHJoSmLZE5cF-4-29" value="" style="shape=partialRectangle;top=0;left=0;bottom=0;fillColor=none;align=left;verticalAlign=top;spacingLeft=4;spacingRight=4;overflow=hidden;rotatable=0;points=[];portConstraint=eastwest;part=1;fontSize=12;" vertex="1" connectable="0" parent="ZyxuIsqHJoSmLZE5cF-4-28">
          <mxGeometry width="30" height="26" as="geometry" />
        </mxCell>
        <mxCell id="ZyxuIsqHJoSmLZE5cF-4-37" value="percertFirstService" style="shape=partialRectangle;top=0;left=0;right=0;bottom=0;align=left;verticalAlign=top;fillColor=none;spacingLeft=34;spacingRight=4;overflow=hidden;rotatable=0;points=[[0,0.5],[1,0.5]];portConstraint=eastwest;dropTarget=0;fontSize=12;" vertex="1" parent="ZyxuIsqHJoSmLZE5cF-4-21">
          <mxGeometry y="116" width="258" height="26" as="geometry" />
        </mxCell>
        <mxCell id="ZyxuIsqHJoSmLZE5cF-4-38" value="" style="shape=partialRectangle;top=0;left=0;bottom=0;fillColor=none;align=left;verticalAlign=top;spacingLeft=4;spacingRight=4;overflow=hidden;rotatable=0;points=[];portConstraint=eastwest;part=1;fontSize=12;" vertex="1" connectable="0" parent="ZyxuIsqHJoSmLZE5cF-4-37">
          <mxGeometry width="30" height="26" as="geometry" />
        </mxCell>
        <mxCell id="ZyxuIsqHJoSmLZE5cF-4-39" value="percertSecondService" style="shape=partialRectangle;top=0;left=0;right=0;bottom=0;align=left;verticalAlign=top;fillColor=none;spacingLeft=34;spacingRight=4;overflow=hidden;rotatable=0;points=[[0,0.5],[1,0.5]];portConstraint=eastwest;dropTarget=0;fontSize=12;" vertex="1" parent="ZyxuIsqHJoSmLZE5cF-4-21">
          <mxGeometry y="142" width="258" height="26" as="geometry" />
        </mxCell>
        <mxCell id="ZyxuIsqHJoSmLZE5cF-4-40" value="" style="shape=partialRectangle;top=0;left=0;bottom=0;fillColor=none;align=left;verticalAlign=top;spacingLeft=4;spacingRight=4;overflow=hidden;rotatable=0;points=[];portConstraint=eastwest;part=1;fontSize=12;" vertex="1" connectable="0" parent="ZyxuIsqHJoSmLZE5cF-4-39">
          <mxGeometry width="30" height="26" as="geometry" />
        </mxCell>
        <mxCell id="ZyxuIsqHJoSmLZE5cF-4-41" value="nbBreackBalls" style="shape=partialRectangle;top=0;left=0;right=0;bottom=0;align=left;verticalAlign=top;fillColor=none;spacingLeft=34;spacingRight=4;overflow=hidden;rotatable=0;points=[[0,0.5],[1,0.5]];portConstraint=eastwest;dropTarget=0;fontSize=12;" vertex="1" parent="ZyxuIsqHJoSmLZE5cF-4-21">
          <mxGeometry y="168" width="258" height="26" as="geometry" />
        </mxCell>
        <mxCell id="ZyxuIsqHJoSmLZE5cF-4-42" value="" style="shape=partialRectangle;top=0;left=0;bottom=0;fillColor=none;align=left;verticalAlign=top;spacingLeft=4;spacingRight=4;overflow=hidden;rotatable=0;points=[];portConstraint=eastwest;part=1;fontSize=12;" vertex="1" connectable="0" parent="ZyxuIsqHJoSmLZE5cF-4-41">
          <mxGeometry width="30" height="26" as="geometry" />
        </mxCell>
        <mxCell id="ZyxuIsqHJoSmLZE5cF-4-43" value="nbWinPoints" style="shape=partialRectangle;top=0;left=0;right=0;bottom=0;align=left;verticalAlign=top;fillColor=none;spacingLeft=34;spacingRight=4;overflow=hidden;rotatable=0;points=[[0,0.5],[1,0.5]];portConstraint=eastwest;dropTarget=0;fontSize=12;" vertex="1" parent="ZyxuIsqHJoSmLZE5cF-4-21">
          <mxGeometry y="194" width="258" height="26" as="geometry" />
        </mxCell>
        <mxCell id="ZyxuIsqHJoSmLZE5cF-4-44" value="" style="shape=partialRectangle;top=0;left=0;bottom=0;fillColor=none;align=left;verticalAlign=top;spacingLeft=4;spacingRight=4;overflow=hidden;rotatable=0;points=[];portConstraint=eastwest;part=1;fontSize=12;" vertex="1" connectable="0" parent="ZyxuIsqHJoSmLZE5cF-4-43">
          <mxGeometry width="30" height="26" as="geometry" />
        </mxCell>
        <mxCell id="ZyxuIsqHJoSmLZE5cF-4-45" value="nbWinGames" style="shape=partialRectangle;top=0;left=0;right=0;bottom=0;align=left;verticalAlign=top;fillColor=none;spacingLeft=34;spacingRight=4;overflow=hidden;rotatable=0;points=[[0,0.5],[1,0.5]];portConstraint=eastwest;dropTarget=0;fontSize=12;" vertex="1" parent="ZyxuIsqHJoSmLZE5cF-4-21">
          <mxGeometry y="220" width="258" height="26" as="geometry" />
        </mxCell>
        <mxCell id="ZyxuIsqHJoSmLZE5cF-4-46" value="" style="shape=partialRectangle;top=0;left=0;bottom=0;fillColor=none;align=left;verticalAlign=top;spacingLeft=4;spacingRight=4;overflow=hidden;rotatable=0;points=[];portConstraint=eastwest;part=1;fontSize=12;" vertex="1" connectable="0" parent="ZyxuIsqHJoSmLZE5cF-4-45">
          <mxGeometry width="30" height="26" as="geometry" />
        </mxCell>
        <mxCell id="ZyxuIsqHJoSmLZE5cF-4-47" value="maxGameSeries" style="shape=partialRectangle;top=0;left=0;right=0;bottom=0;align=left;verticalAlign=top;fillColor=none;spacingLeft=34;spacingRight=4;overflow=hidden;rotatable=0;points=[[0,0.5],[1,0.5]];portConstraint=eastwest;dropTarget=0;fontSize=12;" vertex="1" parent="ZyxuIsqHJoSmLZE5cF-4-21">
          <mxGeometry y="246" width="258" height="26" as="geometry" />
        </mxCell>
        <mxCell id="ZyxuIsqHJoSmLZE5cF-4-48" value="" style="shape=partialRectangle;top=0;left=0;bottom=0;fillColor=none;align=left;verticalAlign=top;spacingLeft=4;spacingRight=4;overflow=hidden;rotatable=0;points=[];portConstraint=eastwest;part=1;fontSize=12;" vertex="1" connectable="0" parent="ZyxuIsqHJoSmLZE5cF-4-47">
          <mxGeometry width="30" height="26" as="geometry" />
        </mxCell>
        <mxCell id="ZyxuIsqHJoSmLZE5cF-4-66" style="edgeStyle=orthogonalEdgeStyle;rounded=0;orthogonalLoop=1;jettySize=auto;html=1;endArrow=none;endFill=0;" edge="1" parent="1" source="ZyxuIsqHJoSmLZE5cF-4-49" target="ZyxuIsqHJoSmLZE5cF-4-4">
          <mxGeometry relative="1" as="geometry" />
        </mxCell>
        <mxCell id="ZyxuIsqHJoSmLZE5cF-4-67" value="1" style="text;html=1;align=center;verticalAlign=middle;resizable=0;points=[];labelBackgroundColor=#ffffff;" vertex="1" connectable="0" parent="ZyxuIsqHJoSmLZE5cF-4-66">
          <mxGeometry x="-0.2476" y="-1" relative="1" as="geometry">
            <mxPoint x="-10" y="-24.33" as="offset" />
          </mxGeometry>
        </mxCell>
        <mxCell id="ZyxuIsqHJoSmLZE5cF-4-68" value="0...*" style="text;html=1;align=center;verticalAlign=middle;resizable=0;points=[];labelBackgroundColor=#ffffff;" vertex="1" connectable="0" parent="ZyxuIsqHJoSmLZE5cF-4-66">
          <mxGeometry x="0.0095" relative="1" as="geometry">
            <mxPoint x="17" y="38.33" as="offset" />
          </mxGeometry>
        </mxCell>
        <mxCell id="ZyxuIsqHJoSmLZE5cF-4-4" value="Match" style="swimlane;fontStyle=0;childLayout=stackLayout;horizontal=1;startSize=26;fillColor=#e0e0e0;horizontalStack=0;resizeParent=1;resizeParentMax=0;resizeLast=0;collapsible=1;marginBottom=0;swimlaneFillColor=#ffffff;align=center;fontSize=14;" vertex="1" parent="1">
          <mxGeometry x="90" y="458" width="160" height="149" as="geometry" />
        </mxCell>
        <mxCell id="ZyxuIsqHJoSmLZE5cF-4-5" value="id" style="shape=partialRectangle;top=0;left=0;right=0;bottom=1;align=left;verticalAlign=middle;fillColor=none;spacingLeft=34;spacingRight=4;overflow=hidden;rotatable=0;points=[[0,0.5],[1,0.5]];portConstraint=eastwest;dropTarget=0;fontStyle=5;fontSize=12;" vertex="1" parent="ZyxuIsqHJoSmLZE5cF-4-4">
          <mxGeometry y="26" width="160" height="30" as="geometry" />
        </mxCell>
        <mxCell id="ZyxuIsqHJoSmLZE5cF-4-6" value="PK" style="shape=partialRectangle;top=0;left=0;bottom=0;fillColor=none;align=left;verticalAlign=middle;spacingLeft=4;spacingRight=4;overflow=hidden;rotatable=0;points=[];portConstraint=eastwest;part=1;fontSize=12;" vertex="1" connectable="0" parent="ZyxuIsqHJoSmLZE5cF-4-5">
          <mxGeometry width="30" height="30" as="geometry" />
        </mxCell>
        <mxCell id="ZyxuIsqHJoSmLZE5cF-4-19" value="user_id1&#xa;user_id2" style="shape=partialRectangle;top=0;left=0;right=0;bottom=1;align=left;verticalAlign=top;fillColor=none;spacingLeft=34;spacingRight=4;overflow=hidden;rotatable=0;points=[[0,0.5],[1,0.5]];portConstraint=eastwest;dropTarget=0;fontSize=12;" vertex="1" parent="ZyxuIsqHJoSmLZE5cF-4-4">
          <mxGeometry y="56" width="160" height="41" as="geometry" />
        </mxCell>
        <mxCell id="ZyxuIsqHJoSmLZE5cF-4-20" value="FK" style="shape=partialRectangle;top=0;left=0;bottom=0;fillColor=none;align=left;verticalAlign=top;spacingLeft=4;spacingRight=4;overflow=hidden;rotatable=0;points=[];portConstraint=eastwest;part=1;fontSize=12;" vertex="1" connectable="0" parent="ZyxuIsqHJoSmLZE5cF-4-19">
          <mxGeometry width="30" height="41" as="geometry" />
        </mxCell>
        <mxCell id="ZyxuIsqHJoSmLZE5cF-4-7" value="date" style="shape=partialRectangle;top=0;left=0;right=0;bottom=0;align=left;verticalAlign=top;fillColor=none;spacingLeft=34;spacingRight=4;overflow=hidden;rotatable=0;points=[[0,0.5],[1,0.5]];portConstraint=eastwest;dropTarget=0;fontSize=12;" vertex="1" parent="ZyxuIsqHJoSmLZE5cF-4-4">
          <mxGeometry y="97" width="160" height="26" as="geometry" />
        </mxCell>
        <mxCell id="ZyxuIsqHJoSmLZE5cF-4-8" value="" style="shape=partialRectangle;top=0;left=0;bottom=0;fillColor=none;align=left;verticalAlign=top;spacingLeft=4;spacingRight=4;overflow=hidden;rotatable=0;points=[];portConstraint=eastwest;part=1;fontSize=12;" vertex="1" connectable="0" parent="ZyxuIsqHJoSmLZE5cF-4-7">
          <mxGeometry width="30" height="26" as="geometry" />
        </mxCell>
        <mxCell id="ZyxuIsqHJoSmLZE5cF-4-9" value="location" style="shape=partialRectangle;top=0;left=0;right=0;bottom=0;align=left;verticalAlign=top;fillColor=none;spacingLeft=34;spacingRight=4;overflow=hidden;rotatable=0;points=[[0,0.5],[1,0.5]];portConstraint=eastwest;dropTarget=0;fontSize=12;" vertex="1" parent="ZyxuIsqHJoSmLZE5cF-4-4">
          <mxGeometry y="123" width="160" height="26" as="geometry" />
        </mxCell>
        <mxCell id="ZyxuIsqHJoSmLZE5cF-4-10" value="" style="shape=partialRectangle;top=0;left=0;bottom=0;fillColor=none;align=left;verticalAlign=top;spacingLeft=4;spacingRight=4;overflow=hidden;rotatable=0;points=[];portConstraint=eastwest;part=1;fontSize=12;" vertex="1" connectable="0" parent="ZyxuIsqHJoSmLZE5cF-4-9">
          <mxGeometry width="30" height="26" as="geometry" />
        </mxCell>
        <mxCell id="ZyxuIsqHJoSmLZE5cF-4-49" value="User" style="swimlane;fontStyle=0;childLayout=stackLayout;horizontal=1;startSize=26;fillColor=#e0e0e0;horizontalStack=0;resizeParent=1;resizeParentMax=0;resizeLast=0;collapsible=1;marginBottom=0;swimlaneFillColor=#ffffff;align=center;fontSize=14;" vertex="1" parent="1">
          <mxGeometry x="90" y="195" width="160" height="160" as="geometry" />
        </mxCell>
        <mxCell id="ZyxuIsqHJoSmLZE5cF-4-50" value="id" style="shape=partialRectangle;top=0;left=0;right=0;bottom=1;align=left;verticalAlign=middle;fillColor=none;spacingLeft=34;spacingRight=4;overflow=hidden;rotatable=0;points=[[0,0.5],[1,0.5]];portConstraint=eastwest;dropTarget=0;fontStyle=5;fontSize=12;" vertex="1" parent="ZyxuIsqHJoSmLZE5cF-4-49">
          <mxGeometry y="26" width="160" height="30" as="geometry" />
        </mxCell>
        <mxCell id="ZyxuIsqHJoSmLZE5cF-4-51" value="PK" style="shape=partialRectangle;top=0;left=0;bottom=0;fillColor=none;align=left;verticalAlign=middle;spacingLeft=4;spacingRight=4;overflow=hidden;rotatable=0;points=[];portConstraint=eastwest;part=1;fontSize=12;" vertex="1" connectable="0" parent="ZyxuIsqHJoSmLZE5cF-4-50">
          <mxGeometry width="30" height="30" as="geometry" />
        </mxCell>
        <mxCell id="ZyxuIsqHJoSmLZE5cF-4-54" value="name" style="shape=partialRectangle;top=0;left=0;right=0;bottom=0;align=left;verticalAlign=top;fillColor=none;spacingLeft=34;spacingRight=4;overflow=hidden;rotatable=0;points=[[0,0.5],[1,0.5]];portConstraint=eastwest;dropTarget=0;fontSize=12;" vertex="1" parent="ZyxuIsqHJoSmLZE5cF-4-49">
          <mxGeometry y="56" width="160" height="26" as="geometry" />
        </mxCell>
        <mxCell id="ZyxuIsqHJoSmLZE5cF-4-55" value="" style="shape=partialRectangle;top=0;left=0;bottom=0;fillColor=none;align=left;verticalAlign=top;spacingLeft=4;spacingRight=4;overflow=hidden;rotatable=0;points=[];portConstraint=eastwest;part=1;fontSize=12;" vertex="1" connectable="0" parent="ZyxuIsqHJoSmLZE5cF-4-54">
          <mxGeometry width="30" height="26" as="geometry" />
        </mxCell>
        <mxCell id="ZyxuIsqHJoSmLZE5cF-4-56" value="age" style="shape=partialRectangle;top=0;left=0;right=0;bottom=0;align=left;verticalAlign=top;fillColor=none;spacingLeft=34;spacingRight=4;overflow=hidden;rotatable=0;points=[[0,0.5],[1,0.5]];portConstraint=eastwest;dropTarget=0;fontSize=12;" vertex="1" parent="ZyxuIsqHJoSmLZE5cF-4-49">
          <mxGeometry y="82" width="160" height="26" as="geometry" />
        </mxCell>
        <mxCell id="ZyxuIsqHJoSmLZE5cF-4-57" value="" style="shape=partialRectangle;top=0;left=0;bottom=0;fillColor=none;align=left;verticalAlign=top;spacingLeft=4;spacingRight=4;overflow=hidden;rotatable=0;points=[];portConstraint=eastwest;part=1;fontSize=12;" vertex="1" connectable="0" parent="ZyxuIsqHJoSmLZE5cF-4-56">
          <mxGeometry width="30" height="26" as="geometry" />
        </mxCell>
        <mxCell id="ZyxuIsqHJoSmLZE5cF-4-58" value="rank" style="shape=partialRectangle;top=0;left=0;right=0;bottom=0;align=left;verticalAlign=top;fillColor=none;spacingLeft=34;spacingRight=4;overflow=hidden;rotatable=0;points=[[0,0.5],[1,0.5]];portConstraint=eastwest;dropTarget=0;fontSize=12;" vertex="1" parent="ZyxuIsqHJoSmLZE5cF-4-49">
          <mxGeometry y="108" width="160" height="26" as="geometry" />
        </mxCell>
        <mxCell id="ZyxuIsqHJoSmLZE5cF-4-59" value="" style="shape=partialRectangle;top=0;left=0;bottom=0;fillColor=none;align=left;verticalAlign=top;spacingLeft=4;spacingRight=4;overflow=hidden;rotatable=0;points=[];portConstraint=eastwest;part=1;fontSize=12;" vertex="1" connectable="0" parent="ZyxuIsqHJoSmLZE5cF-4-58">
          <mxGeometry width="30" height="26" as="geometry" />
        </mxCell>
        <mxCell id="ZyxuIsqHJoSmLZE5cF-4-60" value="picture" style="shape=partialRectangle;top=0;left=0;right=0;bottom=0;align=left;verticalAlign=top;fillColor=none;spacingLeft=34;spacingRight=4;overflow=hidden;rotatable=0;points=[[0,0.5],[1,0.5]];portConstraint=eastwest;dropTarget=0;fontSize=12;" vertex="1" parent="ZyxuIsqHJoSmLZE5cF-4-49">
          <mxGeometry y="134" width="160" height="26" as="geometry" />
        </mxCell>
        <mxCell id="ZyxuIsqHJoSmLZE5cF-4-61" value="" style="shape=partialRectangle;top=0;left=0;bottom=0;fillColor=none;align=left;verticalAlign=top;spacingLeft=4;spacingRight=4;overflow=hidden;rotatable=0;points=[];portConstraint=eastwest;part=1;fontSize=12;" vertex="1" connectable="0" parent="ZyxuIsqHJoSmLZE5cF-4-60">
          <mxGeometry width="30" height="26" as="geometry" />
        </mxCell>
        <mxCell id="ZyxuIsqHJoSmLZE5cF-4-69" style="edgeStyle=orthogonalEdgeStyle;rounded=0;orthogonalLoop=1;jettySize=auto;html=1;exitX=1;exitY=0.5;exitDx=0;exitDy=0;endArrow=none;endFill=0;" edge="1" parent="1" source="ZyxuIsqHJoSmLZE5cF-4-19" target="ZyxuIsqHJoSmLZE5cF-4-21">
          <mxGeometry relative="1" as="geometry" />
        </mxCell>
        <mxCell id="ZyxuIsqHJoSmLZE5cF-4-70" value="1" style="text;html=1;align=center;verticalAlign=middle;resizable=0;points=[];labelBackgroundColor=#ffffff;" vertex="1" connectable="0" parent="ZyxuIsqHJoSmLZE5cF-4-69">
          <mxGeometry x="-0.7446" y="1" relative="1" as="geometry">
            <mxPoint x="-50.83" y="-9.5" as="offset" />
          </mxGeometry>
        </mxCell>
        <mxCell id="ZyxuIsqHJoSmLZE5cF-4-72" value="0...2" style="text;html=1;align=center;verticalAlign=middle;resizable=0;points=[];labelBackgroundColor=#ffffff;" vertex="1" connectable="0" parent="ZyxuIsqHJoSmLZE5cF-4-69">
          <mxGeometry x="0.9524" y="-1" relative="1" as="geometry">
            <mxPoint y="3.5" as="offset" />
          </mxGeometry>
        </mxCell>
      </root>
    </mxGraphModel>
  </diagram>
</mxfile>
